<?xml version="1.0" encoding="utf-8"?>
<!-- Generator: Adobe Illustrator 19.2.1, SVG Export Plug-In . SVG Version: 6.00 Build 0)  -->
<svg version="1.1" id="Layer_1" xmlns="http://www.w3.org/2000/svg" xmlns:xlink="http://www.w3.org/1999/xlink" x="0px" y="0px"
	 viewBox="0 0 670 430.8" style="enable-background:new 0 0 670 430.8;" xml:space="preserve">
<style type="text/css">
	.st0{fill:#68578E;}
</style>
<g>
	<polygon class="st0" points="129.4,190 171.5,142.6 130.9,142.6 130.9,122.9 203.6,122.9 203.6,139.9 161.6,187.3 203.6,187.3 
		203.6,207 129.4,207 	"/>
	<path class="st0" d="M300.1,165.2v-0.2c0-12.1-8.8-22.7-21.6-22.7c-12.8,0-21.2,10.3-21.2,22.5v0.2c0,12.1,8.8,22.7,21.6,22.7
		C291.6,187.6,300.1,177.3,300.1,165.2 M233.4,165.2v-0.2c0-24.1,19.4-43.7,45.4-43.7s45.2,19.3,45.2,43.5v0.2
		c0,24.1-19.4,43.7-45.4,43.7C252.6,208.6,233.4,189.3,233.4,165.2"/>
	<polygon class="st0" points="357.2,122.9 380.6,122.9 380.6,186.5 421.4,186.5 421.4,207 357.2,207 	"/>
	<path class="st0" d="M504.8,173.8l-9.4-23.9l-9.5,23.9H504.8z M484.4,122.4h22.5l35.7,84.6h-25l-6.1-14.9H479l-6,14.9h-24.5
		L484.4,122.4z"/>
	<path class="st0" d="M38.9,296h594.3V33.9H38.9V296z M656,318.9H16V11h640V318.9z"/>
</g>
<g>
	<path class="st0" d="M48,402.5c0.5,2,0.7,3.7,0.7,3.7h0.1c0,0,0.1-1.8,0.7-3.7l5.8-24.6H62l-9.1,35.6h-7.5l-5.5-21
		c-0.7-2.4-1-4.6-1-4.6h-0.1c0,0-0.3,2.4-0.9,4.6l-5.4,21H25l-9-35.6h6.7l5.6,24.6c0.4,2,0.6,3.7,0.6,3.7H29c0,0,0.1-1.7,0.6-3.7
		l6.4-24.6h5.6L48,402.5z"/>
	<path class="st0" d="M77.7,377.9h21.3v5.5H84.1v9.4h12v5.5h-12v9.5h15.7v5.5H77.6L77.7,377.9L77.7,377.9z"/>
	<path class="st0" d="M116.4,377.9h12.1c11,0,18.2,6.5,18.2,17.7s-7.2,17.8-18.2,17.8h-12.1V377.9z M128.2,407.9
		c7.2,0,11.9-4.2,11.9-12.3c0-8-4.6-12.2-11.9-12.2h-5.3v24.5H128.2z"/>
	<path class="st0" d="M163.6,377.9h12.1c10.9,0,18.1,6.5,18.1,17.7s-7.2,17.8-18.1,17.8h-12.1V377.9z M175.4,407.9
		c7.2,0,11.9-4.2,11.9-12.3c0-8-4.6-12.2-11.9-12.2h-5.3v24.5H175.4z"/>
	<path class="st0" d="M210.6,377.9h6.4v35.6h-6.4V377.9z"/>
	<path class="st0" d="M236.1,377.9h6.4l13.4,20.6c1.4,2,3,5.5,3,5.5h0.1c0,0-0.3-3.4-0.3-5.5v-20.6h6.4v35.6h-6.4l-13.4-20.4
		c-1.4-2-2.9-5.5-2.9-5.5h-0.1c0,0,0.3,3.4,0.3,5.5v20.5h-6.4V377.9z"/>
	<path class="st0" d="M300.2,377.3c8.7,0,13.2,4.5,13.2,4.5l-3.2,4.8c0,0-3.8-3.4-9.5-3.4c-8,0-12.2,5.5-12.2,12.2
		c0,7.8,5.3,12.8,11.9,12.8c5.4,0,8.9-3.7,8.9-3.7v-4.1h-5.5v-5.5h11.2v18.8h-5.5v-1.7c0-0.8,0-1.5,0-1.5h-0.1c0,0-3.7,3.8-10.3,3.8
		c-9.4,0-17.4-7.2-17.4-18.5C281.9,385.4,289.6,377.3,300.2,377.3z"/>
	<path class="st0" d="M354.5,377.9H366c3.8,0,5.6,0.3,7.2,1c3.6,1.6,5.9,5,5.9,9.8c0,4.2-2.2,8.2-6,9.8v0.1c0,0,0.5,0.5,1.1,1.8
		l7.3,13.2h-7.2l-7.1-13.2H361v13.2h-6.5V377.9L354.5,377.9z M366.8,394.6c3.5,0,5.6-2,5.6-5.6c0-3.4-1.5-5.5-6.5-5.5H361v11.1
		L366.8,394.6L366.8,394.6z"/>
	<path class="st0" d="M397.6,377.9h21.3v5.5H404v9.4h12v5.5h-12v9.5h15.6v5.5h-22V377.9L397.6,377.9z"/>
	<path class="st0" d="M452.1,377.3c8.7,0,13.2,4.5,13.2,4.5l-3.2,4.8c0,0-3.8-3.4-9.5-3.4c-8,0-12.2,5.5-12.2,12.2
		c0,7.8,5.3,12.8,11.9,12.8c5.4,0,8.9-3.7,8.9-3.7v-4.1h-5.5v-5.5H467v18.8h-5.5v-1.7c0-0.8,0-1.5,0-1.5l0,0c0,0-3.7,3.8-10.3,3.8
		c-9.4,0-17.4-7.2-17.4-18.5C433.8,385.4,441.6,377.3,452.1,377.3z"/>
	<path class="st0" d="M484.4,377.9h6.5v35.6h-6.5V377.9z"/>
	<path class="st0" d="M510.6,404.4c0,0,3.8,3.7,8.9,3.7c2.8,0,5.2-1.4,5.2-4.4c0-6.4-16.8-5.3-16.8-16.2c0-6,5.1-10.3,11.9-10.3
		c7,0,10.6,3.8,10.6,3.8l-2.8,5.3c0,0-3.4-3.1-7.8-3.1c-3,0-5.4,1.8-5.4,4.2c0,6.4,16.8,4.8,16.8,16.1c0,5.6-4.3,10.4-11.8,10.4
		c-8,0-12.3-4.9-12.3-4.9L510.6,404.4z"/>
	<path class="st0" d="M555,383.4h-11.7v-5.5h29.8v5.5h-11.6v30H555V383.4z"/>
	<path class="st0" d="M587.9,377.9h11.5c3.8,0,5.6,0.3,7.2,1c3.6,1.6,5.8,5,5.8,9.8c0,4.2-2.2,8.2-6,9.8v0.1c0,0,0.5,0.5,1.2,1.8
		l7.3,13.2h-7.2l-7.1-13.2h-6.2v13.2h-6.5L587.9,377.9L587.9,377.9L587.9,377.9z M600.1,394.6c3.5,0,5.6-2,5.6-5.6
		c0-3.4-1.5-5.5-6.5-5.5h-4.9v11.1L600.1,394.6L600.1,394.6L600.1,394.6z"/>
	<path class="st0" d="M637.7,398.6l-11.9-20.7h7.3l5.5,10.5c1.2,2.2,2.1,4.8,2.1,4.8h0.1c0,0,1-2.5,2.1-4.8l5.5-10.5h7.3l-11.9,20.7
		v14.9h-6.2v-14.9H637.7z"/>
</g>
</svg>
